<svg id="visual" viewBox="0 0 1920 1080" width="1920" height="1080" xmlns="http://www.w3.org/2000/svg" xmlns:xlink="http://www.w3.org/1999/xlink" version="1.1"><path d="M0 342L274 342L274 323L549 323L549 374L823 374L823 306L1097 306L1097 294L1371 294L1371 283L1646 283L1646 329L1920 329L1920 364L1920 0L1920 0L1646 0L1646 0L1371 0L1371 0L1097 0L1097 0L823 0L823 0L549 0L549 0L274 0L274 0L0 0Z" fill="#000000"></path><path d="M0 289L274 289L274 295L549 295L549 264L823 264L823 278L1097 278L1097 259L1371 259L1371 316L1646 316L1646 306L1920 306L1920 301L1920 0L1920 0L1646 0L1646 0L1371 0L1371 0L1097 0L1097 0L823 0L823 0L549 0L549 0L274 0L274 0L0 0Z" fill="#002700"></path><path d="M0 251L274 251L274 218L549 218L549 261L823 261L823 266L1097 266L1097 244L1371 244L1371 200L1646 200L1646 261L1920 261L1920 203L1920 0L1920 0L1646 0L1646 0L1371 0L1371 0L1097 0L1097 0L823 0L823 0L549 0L549 0L274 0L274 0L0 0Z" fill="#003f00"></path><path d="M0 228L274 228L274 170L549 170L549 224L823 224L823 158L1097 158L1097 218L1371 218L1371 210L1646 210L1646 195L1920 195L1920 211L1920 0L1920 0L1646 0L1646 0L1371 0L1371 0L1097 0L1097 0L823 0L823 0L549 0L549 0L274 0L274 0L0 0Z" fill="#075900"></path><path d="M0 151L274 151L274 123L549 123L549 130L823 130L823 144L1097 144L1097 113L1371 113L1371 124L1646 124L1646 150L1920 150L1920 123L1920 0L1920 0L1646 0L1646 0L1371 0L1371 0L1097 0L1097 0L823 0L823 0L549 0L549 0L274 0L274 0L0 0Z" fill="#2d741a"></path><path d="M0 73L274 73L274 114L549 114L549 90L823 90L823 81L1097 81L1097 111L1371 111L1371 120L1646 120L1646 121L1920 121L1920 117L1920 0L1920 0L1646 0L1646 0L1371 0L1371 0L1097 0L1097 0L823 0L823 0L549 0L549 0L274 0L274 0L0 0Z" fill="#4b9032"></path><path d="M0 66L274 66L274 68L549 68L549 32L823 32L823 48L1097 48L1097 76L1371 76L1371 44L1646 44L1646 58L1920 58L1920 62L1920 0L1920 0L1646 0L1646 0L1371 0L1371 0L1097 0L1097 0L823 0L823 0L549 0L549 0L274 0L274 0L0 0Z" fill="#69ad49"></path></svg>