<svg id="visual" viewBox="0 0 1920 1080" width="1920" height="1080" xmlns="http://www.w3.org/2000/svg" xmlns:xlink="http://www.w3.org/1999/xlink" version="1.1"><path d="M0 571L274 617L549 617L823 548L1097 711L1371 617L1646 672L1920 658L1920 1081L1646 1081L1371 1081L1097 1081L823 1081L549 1081L274 1081L0 1081Z" fill="#e7a5e9"></path><path d="M0 655L274 667L549 580L823 593L1097 727L1371 627L1646 593L1920 698L1920 1081L1646 1081L1371 1081L1097 1081L823 1081L549 1081L274 1081L0 1081Z" fill="#d392d6"></path><path d="M0 755L274 692L549 654L823 731L1097 745L1371 762L1646 690L1920 632L1920 1081L1646 1081L1371 1081L1097 1081L823 1081L549 1081L274 1081L0 1081Z" fill="#c080c2"></path><path d="M0 748L274 705L549 666L823 760L1097 669L1371 771L1646 795L1920 795L1920 1081L1646 1081L1371 1081L1097 1081L823 1081L549 1081L274 1081L0 1081Z" fill="#ad6eb0"></path><path d="M0 726L274 782L549 721L823 700L1097 807L1371 826L1646 732L1920 769L1920 1081L1646 1081L1371 1081L1097 1081L823 1081L549 1081L274 1081L0 1081Z" fill="#9a5d9d"></path><path d="M0 781L274 753L549 867L823 766L1097 755L1371 799L1646 762L1920 744L1920 1081L1646 1081L1371 1081L1097 1081L823 1081L549 1081L274 1081L0 1081Z" fill="#874b8b"></path><path d="M0 860L274 873L549 880L823 798L1097 898L1371 841L1646 846L1920 845L1920 1081L1646 1081L1371 1081L1097 1081L823 1081L549 1081L274 1081L0 1081Z" fill="#753b79"></path><path d="M0 874L274 841L549 929L823 833L1097 913L1371 868L1646 902L1920 912L1920 1081L1646 1081L1371 1081L1097 1081L823 1081L549 1081L274 1081L0 1081Z" fill="#632a68"></path><path d="M0 932L274 923L549 876L823 903L1097 877L1371 930L1646 906L1920 918L1920 1081L1646 1081L1371 1081L1097 1081L823 1081L549 1081L274 1081L0 1081Z" fill="#521957"></path><path d="M0 937L274 951L549 939L823 932L1097 939L1371 963L1646 918L1920 949L1920 1081L1646 1081L1371 1081L1097 1081L823 1081L549 1081L274 1081L0 1081Z" fill="#410647"></path><path d="M0 1022L274 962L549 1018L823 985L1097 987L1371 972L1646 989L1920 1021L1920 1081L1646 1081L1371 1081L1097 1081L823 1081L549 1081L274 1081L0 1081Z" fill="#300037"></path><path d="M0 1008L274 1048L549 1021L823 1050L1097 1018L1371 1039L1646 1039L1920 1042L1920 1081L1646 1081L1371 1081L1097 1081L823 1081L549 1081L274 1081L0 1081Z" fill="#000000"></path></svg>