<svg id="visual" viewBox="0 0 1920 1080" width="1920" height="1080" xmlns="http://www.w3.org/2000/svg" xmlns:xlink="http://www.w3.org/1999/xlink" version="1.1"><path d="M0 774L240 843L480 786L720 775L960 800L1200 835L1440 826L1680 834L1920 841L1920 1081L1680 1081L1440 1081L1200 1081L960 1081L720 1081L480 1081L240 1081L0 1081Z" fill="#e7a5e9"></path><path d="M0 848L240 836L480 805L720 794L960 847L1200 828L1440 822L1680 849L1920 854L1920 1081L1680 1081L1440 1081L1200 1081L960 1081L720 1081L480 1081L240 1081L0 1081Z" fill="#cc8bce"></path><path d="M0 894L240 844L480 881L720 894L960 873L1200 848L1440 833L1680 827L1920 867L1920 1081L1680 1081L1440 1081L1200 1081L960 1081L720 1081L480 1081L240 1081L0 1081Z" fill="#b173b4"></path><path d="M0 914L240 925L480 855L720 885L960 933L1200 886L1440 865L1680 917L1920 905L1920 1081L1680 1081L1440 1081L1200 1081L960 1081L720 1081L480 1081L240 1081L0 1081Z" fill="#975a9b"></path><path d="M0 890L240 904L480 893L720 889L960 909L1200 918L1440 897L1680 961L1920 961L1920 1081L1680 1081L1440 1081L1200 1081L960 1081L720 1081L480 1081L240 1081L0 1081Z" fill="#7e4382"></path><path d="M0 989L240 980L480 946L720 991L960 949L1200 927L1440 923L1680 917L1920 928L1920 1081L1680 1081L1440 1081L1200 1081L960 1081L720 1081L480 1081L240 1081L0 1081Z" fill="#652c6a"></path><path d="M0 961L240 972L480 1008L720 990L960 961L1200 1000L1440 979L1680 972L1920 988L1920 1081L1680 1081L1440 1081L1200 1081L960 1081L720 1081L480 1081L240 1081L0 1081Z" fill="#4d1553"></path><path d="M0 1023L240 1045L480 1012L720 1033L960 1009L1200 1016L1440 987L1680 1002L1920 998L1920 1081L1680 1081L1440 1081L1200 1081L960 1081L720 1081L480 1081L240 1081L0 1081Z" fill="#36003d"></path><path d="M0 1030L240 1029L480 1079L720 1029L960 1028L1200 1022L1440 1054L1680 1079L1920 1052L1920 1081L1680 1081L1440 1081L1200 1081L960 1081L720 1081L480 1081L240 1081L0 1081Z" fill="#000000"></path></svg>