<svg id="visual" viewBox="0 0 1800 900" width="1800" height="900" xmlns="http://www.w3.org/2000/svg" xmlns:xlink="http://www.w3.org/1999/xlink" version="1.1"><path d="M0 475L257 514L514 514L771 456L1029 592L1286 514L1543 560L1800 548L1800 901L1543 901L1286 901L1029 901L771 901L514 901L257 901L0 901Z" fill="#e7a5e9"></path><path d="M0 546L257 555L514 483L771 494L1029 605L1286 523L1543 494L1800 582L1800 901L1543 901L1286 901L1029 901L771 901L514 901L257 901L0 901Z" fill="#d392d6"></path><path d="M0 629L257 576L514 544L771 609L1029 621L1286 635L1543 574L1800 527L1800 901L1543 901L1286 901L1029 901L771 901L514 901L257 901L0 901Z" fill="#c080c2"></path><path d="M0 623L257 587L514 555L771 634L1029 558L1286 643L1543 662L1800 662L1800 901L1543 901L1286 901L1029 901L771 901L514 901L257 901L0 901Z" fill="#ad6eb0"></path><path d="M0 604L257 652L514 600L771 583L1029 672L1286 688L1543 610L1800 641L1800 901L1543 901L1286 901L1029 901L771 901L514 901L257 901L0 901Z" fill="#9a5d9d"></path><path d="M0 650L257 627L514 722L771 638L1029 629L1286 666L1543 635L1800 620L1800 901L1543 901L1286 901L1029 901L771 901L514 901L257 901L0 901Z" fill="#874b8b"></path><path d="M0 717L257 727L514 733L771 665L1029 748L1286 701L1543 705L1800 704L1800 901L1543 901L1286 901L1029 901L771 901L514 901L257 901L0 901Z" fill="#753b79"></path><path d="M0 728L257 700L514 774L771 694L1029 761L1286 723L1543 752L1800 760L1800 901L1543 901L1286 901L1029 901L771 901L514 901L257 901L0 901Z" fill="#632a68"></path><path d="M0 776L257 769L514 730L771 752L1029 731L1286 775L1543 755L1800 765L1800 901L1543 901L1286 901L1029 901L771 901L514 901L257 901L0 901Z" fill="#521957"></path><path d="M0 780L257 792L514 782L771 777L1029 782L1286 802L1543 765L1800 790L1800 901L1543 901L1286 901L1029 901L771 901L514 901L257 901L0 901Z" fill="#410647"></path><path d="M0 851L257 801L514 848L771 821L1029 823L1286 810L1543 824L1800 850L1800 901L1543 901L1286 901L1029 901L771 901L514 901L257 901L0 901Z" fill="#300037"></path><path d="M0 840L257 873L514 851L771 874L1029 848L1286 866L1543 866L1800 868L1800 901L1543 901L1286 901L1029 901L771 901L514 901L257 901L0 901Z" fill="#000000"></path></svg>