<svg id="visual" viewBox="0 0 960 540" width="960" height="540" xmlns="http://www.w3.org/2000/svg" xmlns:xlink="http://www.w3.org/1999/xlink" version="1.1"><path d="M0 285L137 308L274 308L411 273L549 355L686 308L823 335L960 328L960 541L823 541L686 541L549 541L411 541L274 541L137 541L0 541Z" fill="#e7a5e9"></path><path d="M0 327L137 333L274 290L411 296L549 363L686 313L823 296L960 349L960 541L823 541L686 541L549 541L411 541L274 541L137 541L0 541Z" fill="#d392d6"></path><path d="M0 377L137 345L274 326L411 365L549 372L686 381L823 344L960 316L960 541L823 541L686 541L549 541L411 541L274 541L137 541L0 541Z" fill="#c080c2"></path><path d="M0 374L137 352L274 333L411 380L549 334L686 385L823 397L960 397L960 541L823 541L686 541L549 541L411 541L274 541L137 541L0 541Z" fill="#ad6eb0"></path><path d="M0 362L137 391L274 360L411 350L549 403L686 412L823 366L960 384L960 541L823 541L686 541L549 541L411 541L274 541L137 541L0 541Z" fill="#9a5d9d"></path><path d="M0 390L137 376L274 433L411 382L549 377L686 399L823 380L960 372L960 541L823 541L686 541L549 541L411 541L274 541L137 541L0 541Z" fill="#874b8b"></path><path d="M0 430L137 436L274 439L411 399L549 448L686 420L823 422L960 422L960 541L823 541L686 541L549 541L411 541L274 541L137 541L0 541Z" fill="#753b79"></path><path d="M0 436L137 420L274 464L411 416L549 456L686 434L823 451L960 456L960 541L823 541L686 541L549 541L411 541L274 541L137 541L0 541Z" fill="#632a68"></path><path d="M0 465L137 461L274 437L411 451L549 438L686 464L823 452L960 459L960 541L823 541L686 541L549 541L411 541L274 541L137 541L0 541Z" fill="#521957"></path><path d="M0 468L137 475L274 469L411 466L549 469L686 481L823 458L960 474L960 541L823 541L686 541L549 541L411 541L274 541L137 541L0 541Z" fill="#410647"></path><path d="M0 510L137 480L274 508L411 492L549 493L686 486L823 494L960 510L960 541L823 541L686 541L549 541L411 541L274 541L137 541L0 541Z" fill="#300037"></path><path d="M0 503L137 523L274 510L411 524L549 508L686 519L823 519L960 520L960 541L823 541L686 541L549 541L411 541L274 541L137 541L0 541Z" fill="#000000"></path></svg>