<svg id="layer1" xmlns="http://www.w3.org/2000/svg" viewBox="0 0 642.26 434.32">
  <defs>
    <style>
      .cls-1 {
        fill: none;
        stroke-width: 2px;
      }

      .cls-1, .cls-2 {
        stroke: #000;
        stroke-miterlimit: 10;
      }

      .cls-2 {
        stroke-width: 0.75px;
      }

      .cls-3 {
        font-size: 18px;
        font-family: MyriadPro-Regular, Myriad Pro;
      }

      .cls-4 {
        letter-spacing: -0.02em;
      }
    </style>
  </defs>
  <g>
    <path class="cls-1" d="M4.55,187.56h5V178c4-3.14,7.11-6.41,8-11.43,2.46.29,9.05-.2,11.4,0V154.49c-1.54-6.7-3.3-13.15,0-19.91,4.35-6.08,20.74-19,26.6-24,14.27-12,24.24-10.33,27-35,2-12-13-24-13-24l-2-20c15.71-1.74,15.42,4.89,25-11,4.35-.63,47,.85,46.19-.44,14.89,2.7,42.57,13.13,55.81,20.45,10.34,3.33,14.19,6.72,25,2,5.57,0,9.94,2.62,14,6,5.54,2.4,12.27-1.89,17-4,7.26-2.29,5.16,1,8,6,1.69,2.83,11.35,1.89,14,2l14,2c3.56,2,11.36,6.28,15,8l3-3.56c.68-5.38-.89-15.45-3-20.44,0,0,7.57-18.89,9.79-18.45,20.5-7.76,41.51,8.34,48.51-2.33,3.52-11.84,2.58-13.94,20.93-11.22,8.77,2,13.77-6,13.77-6l21,4v9.51c4.36,3.9,12.88,12.29,17,16.49,0,0-5,8-8,8-3.41-.11,1.45,21.25,6,20,4-1,20,5,20,5s10,2,13,6c6.4,13.73.81,32.51,15,38,3,0,1-5,7-6s13,1,13,1-1,5,2,5,15,3,15,3c19.3-14.41,26.05-23.93,37,4,2,0,13,9,18,1s6,3,6,3c5.43,1.15,20.37,3.82,26,4,8.07,2.93,24.66,7.86,33,10l5,13c-3.3,5.87-11.08,16.37-16,21l16,1.21v6.13l-14,3.66a248.08,248.08,0,0,0,14,22.38c.52,8.22-.06,18.18-4,25.61l-18,5H603.42c-16.86,14.7-17.63,21.57-19.87,43l-20,4-16,8-8,13H521.21c-7.49,10.62-8.23,7.72-19.92,8-6.14,4.67-19.91,15.16-25.74,20-11,7.81-14.63,2.54-8,17-2.88,14.43-9.14-4-19-4-11.21-7.66-15.49-5.79-28-5-2.88,11.73,19.88,14.54,24,12,13.07,8.87,25.52,8.27,34,25,4.22,18.9,24,2,28-2h30s3.81,1-3.6,11-2.4,14-2.4,14c-9.86.42-29.31-.44-39-2-2.2,16.91-20.91,17.36-31,16-3.24,7.07-16.71,18.78-22,24-12.4.75-18.83-.29-30-6,0,0-1-8-2-8s13-19,13-19l-9-9c-8.91-3.44-27.43-7.65-37-7,3.87-4.34,10.67-13.71,13-19,4-2.57,14.23-9.17,17-13l-1-6c-10.54-3.28-17.59-6.34-29-3l-20-9s5,3-5-9-31-8-31-8c-3.07,13.19-13.9,27.5-22,38-7.58,4.17-17.21,13.11-27,11l-3,12,6,1c2.55,5,1.54,9,0,14l-17-10-5,2c-21,7.56-15.81,9.68-35-3l1-12c4.67-6.75,15.48-19.85,21-26,15-29.27,18.1-22.07,45.71-34.28-12.29-19.11-19.95-45.2-32.71-67.73-5-5-42-25-42-25h-30c-12.75,4.09-72.09,20.38-82,28l-21-14c-14.23-3.8-43.34-7.47-58-6l-16-24.62Z" transform="translate(0.55 0.56)"/>
    <polygon class="cls-2" points="320.97 84.99 325.02 93.21 334.1 94.53 327.53 100.93 329.08 109.96 320.97 105.7 312.85 109.96 314.4 100.93 307.84 94.53 316.91 93.21 320.97 84.99"/>
    <text class="cls-3" transform="translate(340.52 90.02)"><tspan class="cls-4">K</tspan><tspan x="9.47" y="0">yiv</tspan></text>
  </g>
</svg>
