<svg id="visual" viewBox="0 0 1920 1080" width="1920" height="1080" xmlns="http://www.w3.org/2000/svg" xmlns:xlink="http://www.w3.org/1999/xlink" version="1.1"><path d="M0 348L274 348L274 324L549 324L549 344L823 344L823 325L1097 325L1097 349L1371 349L1371 332L1646 332L1646 328L1920 328L1920 320L1920 0L1920 0L1646 0L1646 0L1371 0L1371 0L1097 0L1097 0L823 0L823 0L549 0L549 0L274 0L274 0L0 0Z" fill="#1d1d1d"></path><path d="M0 229L274 229L274 274L549 274L549 319L823 319L823 245L1097 245L1097 282L1371 282L1371 262L1646 262L1646 242L1920 242L1920 283L1920 0L1920 0L1646 0L1646 0L1371 0L1371 0L1097 0L1097 0L823 0L823 0L549 0L549 0L274 0L274 0L0 0Z" fill="#322636"></path><path d="M0 240L274 240L274 218L549 218L549 185L823 185L823 183L1097 183L1097 214L1371 214L1371 179L1646 179L1646 196L1920 196L1920 228L1920 0L1920 0L1646 0L1646 0L1371 0L1371 0L1097 0L1097 0L823 0L823 0L549 0L549 0L274 0L274 0L0 0Z" fill="#493052"></path><path d="M0 190L274 190L274 180L549 180L549 144L823 144L823 135L1097 135L1097 201L1371 201L1371 157L1646 157L1646 187L1920 187L1920 192L1920 0L1920 0L1646 0L1646 0L1371 0L1371 0L1097 0L1097 0L823 0L823 0L549 0L549 0L274 0L274 0L0 0Z" fill="#60386f"></path><path d="M0 100L274 100L274 147L549 147L549 115L823 115L823 131L1097 131L1097 125L1371 125L1371 109L1646 109L1646 136L1920 136L1920 123L1920 0L1920 0L1646 0L1646 0L1371 0L1371 0L1097 0L1097 0L823 0L823 0L549 0L549 0L274 0L274 0L0 0Z" fill="#77418d"></path><path d="M0 38L274 38L274 33L549 33L549 77L823 77L823 76L1097 76L1097 87L1371 87L1371 50L1646 50L1646 89L1920 89L1920 57L1920 0L1920 0L1646 0L1646 0L1371 0L1371 0L1097 0L1097 0L823 0L823 0L549 0L549 0L274 0L274 0L0 0Z" fill="#9049ad"></path></svg>