<svg id="visual" viewBox="0 0 1920 1080" width="1920" height="1080" xmlns="http://www.w3.org/2000/svg" xmlns:xlink="http://www.w3.org/1999/xlink" version="1.1"><path d="M0 330L274 330L274 345L549 345L549 333L823 333L823 371L1097 371L1097 352L1371 352L1371 352L1646 352L1646 340L1920 340L1920 350L1920 0L1920 0L1646 0L1646 0L1371 0L1371 0L1097 0L1097 0L823 0L823 0L549 0L549 0L274 0L274 0L0 0Z" fill="#1d1d1e"></path><path d="M0 274L274 274L274 252L549 252L549 298L823 298L823 279L1097 279L1097 316L1371 316L1371 317L1646 317L1646 301L1920 301L1920 300L1920 0L1920 0L1646 0L1646 0L1371 0L1371 0L1097 0L1097 0L823 0L823 0L549 0L549 0L274 0L274 0L0 0Z" fill="#272e38"></path><path d="M0 250L274 250L274 285L549 285L549 213L823 213L823 293L1097 293L1097 211L1371 211L1371 275L1646 275L1646 258L1920 258L1920 233L1920 0L1920 0L1646 0L1646 0L1371 0L1371 0L1097 0L1097 0L823 0L823 0L549 0L549 0L274 0L274 0L0 0Z" fill="#264253"></path><path d="M0 193L274 193L274 190L549 190L549 242L823 242L823 224L1097 224L1097 225L1371 225L1371 210L1646 210L1646 225L1920 225L1920 221L1920 0L1920 0L1646 0L1646 0L1371 0L1371 0L1097 0L1097 0L823 0L823 0L549 0L549 0L274 0L274 0L0 0Z" fill="#155869"></path><path d="M0 175L274 175L274 164L549 164L549 144L823 144L823 175L1097 175L1097 178L1371 178L1371 198L1646 198L1646 138L1920 138L1920 160L1920 0L1920 0L1646 0L1646 0L1371 0L1371 0L1097 0L1097 0L823 0L823 0L549 0L549 0L274 0L274 0L0 0Z" fill="#007076"></path><path d="M0 107L274 107L274 121L549 121L549 151L823 151L823 152L1097 152L1097 103L1371 103L1371 128L1646 128L1646 156L1920 156L1920 155L1920 0L1920 0L1646 0L1646 0L1371 0L1371 0L1097 0L1097 0L823 0L823 0L549 0L549 0L274 0L274 0L0 0Z" fill="#008775"></path><path d="M0 107L274 107L274 109L549 109L549 105L823 105L823 91L1097 91L1097 101L1371 101L1371 73L1646 73L1646 105L1920 105L1920 90L1920 0L1920 0L1646 0L1646 0L1371 0L1371 0L1097 0L1097 0L823 0L823 0L549 0L549 0L274 0L274 0L0 0Z" fill="#259c65"></path><path d="M0 45L274 45L274 57L549 57L549 41L823 41L823 63L1097 63L1097 45L1371 45L1371 28L1646 28L1646 35L1920 35L1920 56L1920 0L1920 0L1646 0L1646 0L1371 0L1371 0L1097 0L1097 0L823 0L823 0L549 0L549 0L274 0L274 0L0 0Z" fill="#69ad49"></path></svg>