<svg id="visual" viewBox="0 0 1920 1080" width="1920" height="1080" xmlns="http://www.w3.org/2000/svg" xmlns:xlink="http://www.w3.org/1999/xlink" version="1.1"><path d="M0 311L192 311L192 303L384 303L384 317L576 317L576 348L768 348L768 330L960 330L960 299L1152 299L1152 332L1344 332L1344 339L1536 339L1536 345L1728 345L1728 295L1920 295L1920 374L1920 0L1920 0L1728 0L1728 0L1536 0L1536 0L1344 0L1344 0L1152 0L1152 0L960 0L960 0L768 0L768 0L576 0L576 0L384 0L384 0L192 0L192 0L0 0Z" fill="#faf8f8"></path><path d="M0 302L192 302L192 287L384 287L384 233L576 233L576 280L768 280L768 302L960 302L960 265L1152 265L1152 294L1344 294L1344 286L1536 286L1536 313L1728 313L1728 251L1920 251L1920 312L1920 0L1920 0L1728 0L1728 0L1536 0L1536 0L1344 0L1344 0L1152 0L1152 0L960 0L960 0L768 0L768 0L576 0L576 0L384 0L384 0L192 0L192 0L0 0Z" fill="#fedfd6"></path><path d="M0 176L192 176L192 235L384 235L384 206L576 206L576 173L768 173L768 246L960 246L960 184L1152 184L1152 191L1344 191L1344 209L1536 209L1536 198L1728 198L1728 175L1920 175L1920 219L1920 0L1920 0L1728 0L1728 0L1536 0L1536 0L1344 0L1344 0L1152 0L1152 0L960 0L960 0L768 0L768 0L576 0L576 0L384 0L384 0L192 0L192 0L0 0Z" fill="#f5cbaa"></path><path d="M0 134L192 134L192 204L384 204L384 150L576 150L576 131L768 131L768 176L960 176L960 166L1152 166L1152 147L1344 147L1344 188L1536 188L1536 127L1728 127L1728 177L1920 177L1920 174L1920 0L1920 0L1728 0L1728 0L1536 0L1536 0L1344 0L1344 0L1152 0L1152 0L960 0L960 0L768 0L768 0L576 0L576 0L384 0L384 0L192 0L192 0L0 0Z" fill="#dabd7d"></path><path d="M0 98L192 98L192 113L384 113L384 146L576 146L576 123L768 123L768 96L960 96L960 80L1152 80L1152 86L1344 86L1344 112L1536 112L1536 81L1728 81L1728 140L1920 140L1920 95L1920 0L1920 0L1728 0L1728 0L1536 0L1536 0L1344 0L1344 0L1152 0L1152 0L960 0L960 0L768 0L768 0L576 0L576 0L384 0L384 0L192 0L192 0L0 0Z" fill="#acb45a"></path><path d="M0 89L192 89L192 30L384 30L384 39L576 39L576 89L768 89L768 33L960 33L960 59L1152 59L1152 73L1344 73L1344 41L1536 41L1536 64L1728 64L1728 31L1920 31L1920 51L1920 0L1920 0L1728 0L1728 0L1536 0L1536 0L1344 0L1344 0L1152 0L1152 0L960 0L960 0L768 0L768 0L576 0L576 0L384 0L384 0L192 0L192 0L0 0Z" fill="#69ad49"></path></svg>